<!-- by TradingView --><svg width="56" height="56" xmlns="http://www.w3.org/2000/svg"><path fill="url(#paint0_linear)" d="M0 0h56v56H0z"/><path d="M12.835 21.415l11.568-8.418 2.95 15.523L23.928 43l-10.61-3.921a2 2 0 01-1.307-1.876v-14.17a2 2 0 01.823-1.618zm16.989 4.231L27.438 13l11.533 5.213-9.147 7.433zm16.057 9.986L41 20.336 30.183 29.24 27 43c5.857-1.603 11.758-3.102 17.573-4.862a1.983 1.983 0 001.308-2.506z" fill="#fff"/><defs><linearGradient id="paint0_linear" x1="10.418" y1="9.712" x2="68.147" y2="76.017" gradientUnits="userSpaceOnUse"><stop stop-color="#1A1E21"/><stop offset="1" stop-color="#06060A"/></linearGradient></defs></svg>